<svg width="86" height="16" viewBox="0 0 86 16" fill="none" xmlns="http://www.w3.org/2000/svg">
<path d="M3.57329 12.18C2.60129 12.18 1.73729 12.042 0.981293 11.766V9.714C1.58129 9.978 2.28329 10.11 3.08729 10.11C3.83129 10.11 4.35929 9.96 4.67129 9.66C4.99529 9.348 5.15729 8.844 5.15729 8.148V0.407999H7.58729V8.688C7.58729 11.016 6.24929 12.18 3.57329 12.18ZM13.4111 12.18C12.3911 12.18 11.5931 11.898 11.0171 11.334C10.4531 10.758 10.1711 9.918 10.1711 8.814V3.468H12.6011V8.76C12.6011 9.336 12.7391 9.756 13.0151 10.02C13.2911 10.272 13.7051 10.398 14.2571 10.398C14.6771 10.398 15.0611 10.314 15.4091 10.146C15.7691 9.978 16.0751 9.768 16.3271 9.516V3.468H18.7571V12H16.5071L16.4171 11.19C16.0571 11.478 15.6311 11.718 15.1391 11.91C14.6591 12.09 14.0831 12.18 13.4111 12.18ZM21.5456 12V3.468H23.7956L23.8856 4.296C24.2936 3.984 24.7376 3.738 25.2176 3.558C25.7096 3.378 26.2376 3.288 26.8016 3.288C27.4016 3.288 27.8636 3.378 28.1876 3.558C28.5236 3.738 28.7816 3.996 28.9616 4.332C29.3576 4.02 29.8076 3.768 30.3116 3.576C30.8276 3.384 31.4336 3.288 32.1296 3.288C33.1136 3.288 33.8396 3.546 34.3076 4.062C34.7756 4.566 35.0096 5.34 35.0096 6.384V12H32.6156V6.654C32.6156 6.09 32.4956 5.688 32.2556 5.448C32.0156 5.196 31.6316 5.07 31.1036 5.07C30.3836 5.07 29.7836 5.328 29.3036 5.844C29.3636 6.048 29.3936 6.294 29.3936 6.582V12H27.1256V6.654C27.1256 6.126 27.0356 5.73 26.8556 5.466C26.6756 5.202 26.3276 5.07 25.8116 5.07C25.4516 5.07 25.1096 5.166 24.7856 5.358C24.4736 5.538 24.1916 5.748 23.9396 5.988V12H21.5456ZM39.4917 15.168C39.1197 15.168 38.7897 15.144 38.5017 15.096C38.2137 15.06 37.9317 14.988 37.6557 14.88V13.17C37.8597 13.242 38.0457 13.29 38.2137 13.314C38.3937 13.338 38.5737 13.35 38.7537 13.35C39.2457 13.35 39.6237 13.236 39.8877 13.008C40.1637 12.78 40.4397 12.396 40.7157 11.856L36.8997 3.468H39.4377L41.9397 9.264L44.4237 3.468H46.9437L43.5777 11.406C43.2657 12.15 42.9237 12.804 42.5517 13.368C42.1917 13.944 41.7657 14.388 41.2737 14.7C40.7817 15.012 40.1877 15.168 39.4917 15.168ZM51.2162 12.18C50.5802 12.18 49.9742 12.132 49.3982 12.036C48.8222 11.952 48.3602 11.844 48.0122 11.712V9.696C48.4322 9.864 48.9062 9.996 49.4342 10.092C49.9622 10.176 50.4482 10.218 50.8922 10.218C51.4922 10.218 51.9122 10.182 52.1522 10.11C52.4042 10.038 52.5302 9.876 52.5302 9.624C52.5302 9.336 52.3382 9.126 51.9542 8.994C51.5822 8.862 51.0242 8.676 50.2802 8.436C49.5002 8.172 48.9002 7.854 48.4802 7.482C48.0602 7.11 47.8502 6.558 47.8502 5.826C47.8502 5.01 48.1442 4.386 48.7322 3.954C49.3322 3.51 50.2922 3.288 51.6122 3.288C52.1402 3.288 52.6382 3.33 53.1062 3.414C53.5742 3.486 53.9702 3.576 54.2942 3.684V5.682C53.9702 5.526 53.5982 5.412 53.1782 5.34C52.7582 5.256 52.3682 5.214 52.0082 5.214C51.4922 5.214 51.0782 5.25 50.7662 5.322C50.4662 5.394 50.3162 5.55 50.3162 5.79C50.3162 6.054 50.4782 6.24 50.8022 6.348C51.1382 6.456 51.6542 6.618 52.3502 6.834C53.0342 7.038 53.5682 7.26 53.9522 7.5C54.3362 7.74 54.6062 8.028 54.7622 8.364C54.9182 8.688 54.9962 9.096 54.9962 9.588C54.9962 11.316 53.7362 12.18 51.2162 12.18ZM58.8933 12V2.28H55.3293V0.407999H64.8693V2.28H61.3233V12H58.8933ZM68.258 12.18C67.718 12.18 67.214 12.084 66.746 11.892C66.29 11.688 65.918 11.394 65.63 11.01C65.354 10.614 65.216 10.122 65.216 9.534C65.216 8.694 65.51 8.022 66.098 7.518C66.698 7.014 67.58 6.762 68.744 6.762H71.264V6.528C71.264 6 71.114 5.628 70.814 5.412C70.526 5.196 69.938 5.088 69.05 5.088C68.078 5.088 67.142 5.238 66.242 5.538V3.828C66.638 3.672 67.118 3.546 67.682 3.45C68.258 3.342 68.882 3.288 69.554 3.288C70.838 3.288 71.828 3.552 72.524 4.08C73.232 4.596 73.586 5.43 73.586 6.582V12H71.48L71.354 11.226C71.018 11.526 70.604 11.76 70.112 11.928C69.62 12.096 69.002 12.18 68.258 12.18ZM68.924 10.578C69.464 10.578 69.932 10.488 70.328 10.308C70.724 10.128 71.036 9.9 71.264 9.624V8.274H68.798C67.85 8.274 67.376 8.664 67.376 9.444C67.376 10.2 67.892 10.578 68.924 10.578ZM76.2628 15.888V3.468H78.3688L78.4948 4.26C78.8668 3.948 79.2748 3.708 79.7188 3.54C80.1628 3.372 80.6848 3.288 81.2848 3.288C82.5328 3.288 83.4928 3.63 84.1648 4.314C84.8488 4.986 85.1908 6.09 85.1908 7.626C85.1908 9.162 84.8248 10.308 84.0928 11.064C83.3728 11.808 82.3888 12.18 81.1408 12.18C80.1808 12.18 79.3648 11.964 78.6928 11.532V15.888H76.2628ZM80.5288 10.398C81.2488 10.398 81.7948 10.176 82.1668 9.732C82.5388 9.288 82.7248 8.592 82.7248 7.644C82.7248 6.732 82.5568 6.078 82.2208 5.682C81.8848 5.274 81.3448 5.07 80.6008 5.07C79.8568 5.07 79.2208 5.328 78.6928 5.844V9.75C78.9448 9.942 79.2088 10.098 79.4848 10.218C79.7728 10.338 80.1208 10.398 80.5288 10.398Z" fill="black"/>
</svg>
